# xmcd
#
# Track frame offsets:
#  150
#  13453
#  25325
#  43419
#  55797
#  77539
#  98778
#  115376
#  131586
#  143807
#  163131
#  177554
#  194201
#  194623
#  212333
#  233828
#  250321
#
# Disc length: 3874 seconds
#
# Revision: 0
# Processed by: cddbd v1.4PL0 Copyright (c) Steve Scherf et al.
# Submitted via: AltoMP3_Maker 3.0
#
DISCID=010f2011
DTITLE=Garth Brooks - Greatest Hits (Live)
DYEAR=1900
DGENRE=
TTITLE0=Callin' Baton Rouge
TTITLE1=Two of a Kind, Workin' on a Full House
TTITLE2=Shameless
TTITLE3=Papa Loved Mama
TTITLE4=Thunder Rolls [The Long Version]
TTITLE5=We Shall Be Free
TTITLE6=Unanswered Prayers
TTITLE7=Standing Outside the Fire
TTITLE8=Longneck Bottle
TTITLE9=It's Your Song
TTITLE10=Much Too Young (To Feel This Damn Old)
TTITLE11=River
TTITLE12=13
TTITLE13=Tearin' It Up (And Burnin' It Down)
TTITLE14=American Honky-Tonk Bar Association
TTITLE15=Rodeo
TTITLE16=Friends in Low Places [The Long Version]
EXTD=
EXTT0=
EXTT1=
EXTT2=
EXTT3=
EXTT4=
EXTT5=
EXTT6=
EXTT7=
EXTT8=
EXTT9=
EXTT10=
EXTT11=
EXTT12=
EXTT13=
EXTT14=
EXTT15=
EXTT16=
PLAYORDER=
